<svg width="279" height="279" viewBox="0 0 279 279" fill="none" xmlns="http://www.w3.org/2000/svg">
<path d="M110.822 48.1625C130.474 48.1625 143.291 62.1755 143.291 83.5367V136H117.658V85.7583C117.658 77.2138 113.556 71.7453 105.354 71.7453C96.809 71.7453 92.0241 77.7265 92.0241 87.809V136H66.3906V85.7583C66.3906 77.2138 62.2892 71.7453 54.0865 71.7453C45.542 71.7453 40.7571 77.7265 40.7571 87.809V136H15.1236V50.555H40.7571V58.4159C44.6875 52.6056 52.2067 48.1625 63.6563 48.1625C73.7389 48.1625 81.258 52.2639 86.0429 59.4413C90.8279 52.6056 98.6888 48.1625 110.822 48.1625ZM166.795 43.0358C158.422 43.0358 151.415 36.0293 151.415 27.6557C151.415 19.2821 158.422 12.2756 166.795 12.2756C175.169 12.2756 182.175 19.2821 182.175 27.6557C182.175 36.0293 175.169 43.0358 166.795 43.0358ZM153.978 136V50.555H179.612V136H153.978ZM241.605 75.1631H224.003V105.411C224.003 112.759 230.326 113.443 241.605 112.759V136C208.11 139.418 198.37 129.335 198.37 105.411V75.1631H184.699V50.555H198.37V34.3204L224.003 26.6304V50.555H241.605V75.1631ZM262.1 43.0358C253.726 43.0358 246.72 36.0293 246.72 27.6557C246.72 19.2821 253.726 12.2756 262.1 12.2756C270.473 12.2756 277.48 19.2821 277.48 27.6557C277.48 36.0293 270.473 43.0358 262.1 43.0358ZM249.283 136V50.555H274.916V136H249.283Z" fill="white"/>
<path d="M26.0128 12H33.3168L25.1768 34H17.6968L9.55679 12H16.8608L21.4368 25.948L26.0128 12ZM49.0911 12H55.6911V34H49.0911V31.932C47.6391 33.604 45.4831 34.616 42.5351 34.616C36.7711 34.616 32.0191 29.556 32.0191 23C32.0191 16.444 36.7711 11.384 42.5351 11.384C45.4831 11.384 47.6391 12.396 49.0911 14.068V12ZM43.8551 28.368C46.8911 28.368 49.0911 26.3 49.0911 23C49.0911 19.7 46.8911 17.632 43.8551 17.632C40.8191 17.632 38.6191 19.7 38.6191 23C38.6191 26.3 40.8191 28.368 43.8551 28.368ZM83.4132 11.384C88.4732 11.384 91.7732 14.992 91.7732 20.492V34H85.1732V21.064C85.1732 18.864 84.1172 17.456 82.0052 17.456C79.8052 17.456 78.5732 18.996 78.5732 21.592V34H71.9732V21.064C71.9732 18.864 70.9172 17.456 68.8052 17.456C66.6052 17.456 65.3732 18.996 65.3732 21.592V34H58.7732V12H65.3732V14.024C66.3852 12.528 68.3212 11.384 71.2692 11.384C73.8652 11.384 75.8012 12.44 77.0332 14.288C78.2652 12.528 80.2892 11.384 83.4132 11.384ZM105.085 34.616C98.6169 34.616 93.4249 29.556 93.4249 23C93.4249 16.444 98.6169 11.384 105.085 11.384C111.553 11.384 116.745 16.444 116.745 23C116.745 29.556 111.553 34.616 105.085 34.616ZM105.085 28.192C107.945 28.192 110.145 26.124 110.145 23C110.145 19.876 107.945 17.808 105.085 17.808C102.225 17.808 100.025 19.876 100.025 23C100.025 26.124 102.225 28.192 105.085 28.192ZM124.536 18.424C124.536 20.932 135.36 19.26 135.36 27.4C135.36 32.46 130.96 34.616 126.208 34.616C121.808 34.616 118.464 32.944 116.748 29.38L122.468 26.124C123.04 27.796 124.272 28.72 126.208 28.72C127.792 28.72 128.584 28.236 128.584 27.356C128.584 24.936 117.76 26.212 117.76 18.6C117.76 13.804 121.808 11.384 126.384 11.384C129.948 11.384 133.116 12.968 134.964 16.092L129.332 19.128C128.716 17.984 127.836 17.192 126.384 17.192C125.24 17.192 124.536 17.632 124.536 18.424Z" fill="white"/>
<path d="M110.822 178.163C130.474 178.163 143.291 192.175 143.291 213.537V266H117.658V215.758C117.658 207.214 113.556 201.745 105.354 201.745C96.809 201.745 92.0241 207.726 92.0241 217.809V266H66.3906V215.758C66.3906 207.214 62.2892 201.745 54.0865 201.745C45.542 201.745 40.7571 207.726 40.7571 217.809V266H15.1236V180.555H40.7571V188.416C44.6875 182.606 52.2067 178.163 63.6563 178.163C73.7389 178.163 81.258 182.264 86.0429 189.441C90.8279 182.606 98.6888 178.163 110.822 178.163ZM166.795 173.036C158.422 173.036 151.415 166.029 151.415 157.656C151.415 149.282 158.422 142.276 166.795 142.276C175.169 142.276 182.175 149.282 182.175 157.656C182.175 166.029 175.169 173.036 166.795 173.036ZM153.978 266V180.555H179.612V266H153.978ZM241.605 205.163H224.003V235.411C224.003 242.759 230.326 243.443 241.605 242.759V266C208.11 269.418 198.37 259.335 198.37 235.411V205.163H184.699V180.555H198.37V164.32L224.003 156.63V180.555H241.605V205.163ZM262.1 173.036C253.726 173.036 246.72 166.029 246.72 157.656C246.72 149.282 253.726 142.276 262.1 142.276C270.473 142.276 277.48 149.282 277.48 157.656C277.48 166.029 270.473 173.036 262.1 173.036ZM249.283 266V180.555H274.916V266H249.283Z" fill="white"/>
</svg>
